# xmcd
#
# Track frame offsets:
#	150
#	15845
#	33720
#	53629
#	69774
#	88033
#	107337
#	117272
#	135769
#	150500
#	175125
#
# Disc length: 2567 seconds
#
# Revision: 0
# Processed by: cddbd v1.5.2PL0 Copyright (c) Steve Scherf et al.
# Submitted via: dBpowerAMP V4.0
#
DISCID=730a050b
DTITLE=Michael Johnson - För Denna Längtans Skull
DYEAR=2009
DGENRE=Gospel
TTITLE0=Rum För Ett Ensamt Hjärta
TTITLE1=Bevarad
TTITLE2=För Denna Längtans Skull
TTITLE3=Ögon Som Vet
TTITLE4=När Tystnaden Bryts Igen
TTITLE5=Hål I Din Himmel
TTITLE6=Nåden
TTITLE7=I Detta Liv
TTITLE8=Vägen Genom Dig
TTITLE9=Jag Ska Sjunga Ditt Namn För Min Själ
TTITLE10=Detta Slut Är Inget Slut
EXTD=
EXTT0=
EXTT1=
EXTT2=
EXTT3=
EXTT4=
EXTT5=
EXTT6=
EXTT7=
EXTT8=
EXTT9=
EXTT10=
PLAYORDER=
